<svg width="104" height="25" viewBox="0 0 104 25" fill="none" xmlns="http://www.w3.org/2000/svg">
<path d="M22 12.75C22 7.23 17.52 2.75 12 2.75C6.48 2.75 2 7.23 2 12.75C2 17.59 5.44 21.62 10 22.55V15.75H8V12.75H10V10.25C10 8.32 11.57 6.75 13.5 6.75H16V9.75H14C13.45 9.75 13 10.2 13 10.75V12.75H16V15.75H13V22.7C18.05 22.2 22 17.94 22 12.75Z" fill="#1E1E1E"/>
<path d="M55 12.75C55 13.3433 54.8241 13.9234 54.4944 14.4167C54.1648 14.9101 53.6962 15.2946 53.1481 15.5216C52.5999 15.7487 51.9967 15.8081 51.4147 15.6924C50.8328 15.5766 50.2982 15.2909 49.8787 14.8713C49.4591 14.4518 49.1734 13.9172 49.0576 13.3353C48.9419 12.7533 49.0013 12.1501 49.2284 11.6019C49.4554 11.0538 49.8399 10.5852 50.3333 10.2556C50.8266 9.92595 51.4067 9.75 52 9.75C52.7949 9.75247 53.5565 10.0693 54.1186 10.6314C54.6807 11.1935 54.9975 11.9551 55 12.75ZM61.375 8.625V16.875C61.375 18.2674 60.8219 19.6027 59.8373 20.5873C58.8527 21.5719 57.5174 22.125 56.125 22.125H47.875C46.4826 22.125 45.1473 21.5719 44.1627 20.5873C43.1781 19.6027 42.625 18.2674 42.625 16.875V8.625C42.625 7.23261 43.1781 5.89726 44.1627 4.91269C45.1473 3.92812 46.4826 3.375 47.875 3.375H56.125C57.5174 3.375 58.8527 3.92812 59.8373 4.91269C60.8219 5.89726 61.375 7.23261 61.375 8.625ZM56.5 12.75C56.5 11.86 56.2361 10.99 55.7416 10.2499C55.2471 9.50991 54.5443 8.93314 53.7221 8.59254C52.8998 8.25195 51.995 8.16283 51.1221 8.33647C50.2492 8.5101 49.4474 8.93868 48.818 9.56802C48.1887 10.1974 47.7601 10.9992 47.5865 11.8721C47.4128 12.745 47.5019 13.6498 47.8425 14.4721C48.1831 15.2943 48.7599 15.9971 49.4999 16.4916C50.24 16.9861 51.11 17.25 52 17.25C53.1935 17.25 54.3381 16.7759 55.182 15.932C56.0259 15.0881 56.5 13.9435 56.5 12.75ZM58 7.875C58 7.6525 57.934 7.43499 57.8104 7.24998C57.6868 7.06498 57.5111 6.92078 57.3055 6.83564C57.1 6.75049 56.8738 6.72821 56.6555 6.77162C56.4373 6.81502 56.2368 6.92217 56.0795 7.0795C55.9222 7.23684 55.815 7.43729 55.7716 7.65552C55.7282 7.87375 55.7505 8.09995 55.8356 8.30552C55.9208 8.51109 56.065 8.68679 56.25 8.8104C56.435 8.93402 56.6525 9 56.875 9C57.1734 9 57.4595 8.88147 57.6705 8.6705C57.8815 8.45952 58 8.17337 58 7.875Z" fill="#1E1E1E"/>
<path d="M92 2.80444C86.5071 2.80444 82.0544 7.25713 82.0544 12.75C82.0544 18.2428 86.5071 22.6955 92 22.6955C97.4928 22.6955 101.945 18.2428 101.945 12.75C101.945 7.25713 97.4928 2.80444 92 2.80444ZM89.5654 16.8722H87.5514V10.391H89.5654V16.8722ZM88.546 9.59536C87.9099 9.59536 87.4986 9.1447 87.4986 8.58734C87.4986 8.01858 87.9223 7.58139 88.5719 7.58139C89.2214 7.58139 89.6192 8.01858 89.6317 8.58734C89.6317 9.1447 89.2214 9.59536 88.546 9.59536ZM96.9209 16.8722H94.9069V13.2804C94.9069 12.4443 94.6148 11.8766 93.8865 11.8766C93.3302 11.8766 92.9997 12.261 92.8536 12.6308C92.7997 12.7624 92.7863 12.9489 92.7863 13.1343V16.8711H90.7713V12.4578C90.7713 11.6487 90.7454 10.9722 90.7184 10.39H92.4682L92.5604 11.2902H92.6008C92.866 10.8676 93.5156 10.2439 94.6024 10.2439C95.9274 10.2439 96.9209 11.1317 96.9209 13.04V16.8722Z" fill="#1E1E1E"/>
</svg>
